<svg height="85" width="193" xmlns="http://www.w3.org/2000/svg"><g fill="none" fill-rule="evenodd"><path d="m0 32h24v30l-12-7.644-12 7.644z" fill="#e33d26"/><g transform="translate(61 27)"><path d="m0 0h30v40h-30z" fill="#fff"/><path d="m.75.75h28.5v38.5h-28.5z" stroke="#b3b3b3" stroke-width="1.5"/></g><path d="m77.5 52.5v8.589l3.5-2.23 3.5 2.23v-8.589z" stroke="#e33d26"/><path d="m61.5 43.5h28" stroke="#b3b3b3" stroke-linecap="square"/><g transform="translate(95 37)"><path d="m0 0h30v40h-30z" fill="#fff"/><path d="m.75.75h28.5v38.5h-28.5z" stroke="#b3b3b3" stroke-width="1.5"/></g><path d="m111.5 62.5v8.589l3.5-2.23 3.5 2.23v-8.589z" stroke="#e33d26"/><path d="m95.5 53.5h28" stroke="#b3b3b3" stroke-linecap="square"/><g transform="translate(129 17)"><path d="m0 0h30v40h-30z" fill="#fff"/><path d="m.75.75h28.5v38.5h-28.5z" stroke="#b3b3b3" stroke-width="1.5"/></g><path d="m145.5 42.5v8.589l3.5-2.23 3.5 2.23v-8.589z" stroke="#e33d26"/><path d="m129.5 33.5h28" stroke="#b3b3b3" stroke-linecap="square"/><g transform="translate(163 27)"><path d="m0 0h30v40h-30z" fill="#fff"/><path d="m.75.75h28.5v38.5h-28.5z" stroke="#b3b3b3" stroke-width="1.5"/></g><path d="m179.5 52.5v8.589l3.5-2.23 3.5 2.23v-8.589z" stroke="#e33d26"/><path d="m163.5 43.5h28" stroke="#b3b3b3" stroke-linecap="square"/><path d="m95.007 13.391-2.392 8.609-2.39-8.609-8.611-2.391 8.61-2.391 2.39-8.609 2.392 8.609 8.609 2.391zm65.503 61.029-2.392 8.61-2.391-8.61-8.609-2.39 8.609-2.392 2.391-8.609 2.392 8.61 8.608 2.39-8.608 2.392z" fill="#b3b3b3"/><path d="m85.076 77.871-1.739 6.261-1.739-6.26-6.26-1.74 6.26-1.739 1.74-6.26 1.738 6.26 6.261 1.74-6.26 1.738zm84.699-58.147-1.74 6.261-1.739-6.26-6.26-1.74 6.26-1.739 1.74-6.26 1.739 6.26 6.26 1.74zm-56.586 4.662-1.74 6.261-1.738-6.26-6.261-1.74 6.26-1.74 1.74-6.26 1.739 6.26 6.26 1.74-6.26 1.74z" fill="#d8d8d8"/><path d="m32.395 45.272h18.472" stroke="#d8d8d8" stroke-linecap="square" stroke-width="2"/><path d="m50.344 45.07-2.223-2.222-.606-.606 1.414-1.414.606.606 2.223 2.222.07-.07 1.415 1.414-.606.606-3.03 3.03-.607.607-1.414-1.415.606-.606 2.152-2.151z" fill="#d8d8d8"/></g></svg>